<svg xmlns="http://www.w3.org/2000/svg" viewBox="0 0 328 328"><defs><style>.cls-1{fill:none;stroke:#f15a24;stroke-miterlimit:10;stroke-width:15px;}.cls-2{fill:#f15a24;}.cls-3{fill:#fff;}.cls-4{fill:#f2f2f2;}</style></defs><g id="Layer_2" data-name="Layer 2"><g id="Logo"><circle class="cls-1" cx="164" cy="164" r="156.5"/><path class="cls-2" d="M194.78,197.54,190.29,203c-2.64,3.21-5.29,6.41-7.92,9.63a1.31,1.31,0,0,1-1.15.54q-21.85,0-43.73,0a1.21,1.21,0,0,1-1.06-.43q-6.06-7.42-12.17-14.8c-.1-.13-.19-.27-.31-.44l3.66-5.34,30.21-43.9a2,2,0,0,1,3.18,0l33.33,48.57Zm-20-.75-15.47-22.06-15.38,22.06Z"/><path d="M76,131.78V58h26.27a1,1,0,0,1,1,.48q17.18,26.19,34.39,52.35a1,1,0,0,1,0,1.31q-6.71,9.56-13.36,19.13a1.12,1.12,0,0,1-1,.55q-23.23,0-46.47,0Zm18-18.54h22.45L94,79.15Z"/><path d="M226.75,58V76.43H187l21.64,34,.15,0V89.41h18v42.37h-.81q-12.75,0-25.5,0a1.19,1.19,0,0,1-1.15-.63Q182.2,105,165.08,79a1,1,0,0,1,0-1.3q6.58-9.45,13.13-18.94a1.52,1.52,0,0,1,1.45-.75q23.06,0,46.11,0Z"/><path d="M194.45,204.1c3.06-4.22,6.07-8.35,9.08-12.48,3.34-4.6,6.68-9.21,10.05-13.79a.75.75,0,0,0,0-1.06q-7.39-9.84-14.76-19.72l-.44-.62,12.49-10.55c4.54,6.42,9.06,12.81,13.66,19.29l13.75-19.29,12.5,10.56L234.12,178.6l18.56,25.49-11.39,10.38-17.82-24.18-17.63,24.18Z"/><path d="M75.19,157.63l13.13-11.2,18.27,36.18c6.21-12.11,12.37-24.11,18.55-36.18l13.06,11.21c-1.41,2.57-2.8,5.11-4.2,7.65q-12.94,23.63-25.88,47.27a1.27,1.27,0,0,1-1.15.71,2.24,2.24,0,0,1-2.52-1.48q-14.34-26.64-28.78-53.22C75.52,158.27,75.37,158,75.19,157.63Z"/><path d="M142.53,131.74V58h17.91v73.73Z"/><path d="M233.92,58H251.8v73.73H233.92Z"/><path class="cls-3" d="M76,131.78V58h26.27a1,1,0,0,1,1,.48q17.18,26.19,34.39,52.35a1,1,0,0,1,0,1.31q-6.71,9.56-13.36,19.13a1.12,1.12,0,0,1-1,.55q-23.23,0-46.47,0Zm18-18.54h22.45L94,79.15Z"/><path class="cls-3" d="M226.75,58V76.43H187l21.64,34,.15,0V89.41h18v42.37h-.81q-12.75,0-25.5,0a1.19,1.19,0,0,1-1.15-.63Q182.2,105,165.08,79a1,1,0,0,1,0-1.3q6.58-9.45,13.13-18.94a1.52,1.52,0,0,1,1.45-.75q23.06,0,46.11,0Z"/><path class="cls-3" d="M194.45,204.1c3.06-4.22,6.07-8.35,9.08-12.48,3.34-4.6,6.68-9.21,10.05-13.79a.75.75,0,0,0,0-1.06q-7.39-9.84-14.76-19.72l-.44-.62,12.49-10.55c4.54,6.42,9.06,12.81,13.66,19.29l13.75-19.29,12.5,10.56L234.12,178.6l18.56,25.49-11.39,10.38-17.82-24.18-17.63,24.18Z"/><path class="cls-3" d="M75.19,157.63l13.13-11.2,18.27,36.18c6.21-12.11,12.37-24.11,18.55-36.18l13.06,11.21c-1.41,2.57-2.8,5.11-4.2,7.65q-12.94,23.63-25.88,47.27a1.27,1.27,0,0,1-1.15.71,2.24,2.24,0,0,1-2.52-1.48q-14.34-26.64-28.78-53.22C75.52,158.27,75.37,158,75.19,157.63Z"/><path class="cls-3" d="M142.53,131.74V58h17.91v73.73Z"/><path class="cls-3" d="M233.92,58H251.8v73.73H233.92Z"/><path class="cls-3" d="M75.66,228.63V270H252.18V228.63Z"/><path class="cls-4" d="M100,233.48c2.08,0,4.15,0,6.23,0a1.17,1.17,0,0,1,.69.46c1.83,2.15,3.64,4.31,5.46,6.47l.71.8v-7.68h5.54V262c-.37-.29-.6-.45-.81-.63-1.36-1.2-2.69-2.43-4.08-3.6a1.67,1.67,0,0,1-.63-1.45c0-2,0-4,0-6a1.73,1.73,0,0,0-.31-1.05c-1.55-1.88-3.14-3.73-4.71-5.59-.07-.08-.16-.14-.36-.34v13h-5.67v-1c0-5.92,0-11.83,0-17.75a2.57,2.57,0,0,0-.75-2c-.54-.56-1-1.2-1.49-1.8Z"/><path class="cls-4" d="M227.87,239.22h-5c0,.34,0,.6,0,.86,0,4.49,0,9,0,13.46a1.36,1.36,0,0,0,.63,1.25c1.13.82,2.23,1.68,3.32,2.56a1.18,1.18,0,0,1,.47.75c0,2.29,0,4.57,0,7.06a7,7,0,0,1-1-.51c-2.82-2.18-5.63-4.38-8.46-6.54a1.3,1.3,0,0,1-.58-1.18q0-8.34,0-16.68v-1h-5.38v-5.69h16Z"/><path class="cls-4" d="M159.58,262.06V246.49l-2-.1v-4.82h1.95v-8h13.21v5.65h-7.49v2.34h7.5v4.9h-7.51c0,.39,0,.71,0,1,0,2.86,0,5.72,0,8.57a2.14,2.14,0,0,1-.84,1.9c-1.33,1.1-2.6,2.28-3.89,3.42Z"/><path d="M100,233.48c2.08,0,4.15,0,6.23,0a1.17,1.17,0,0,1,.69.46c1.83,2.15,3.64,4.31,5.46,6.47l.71.8v-7.68h5.54V262c-.37-.29-.6-.45-.81-.63-1.36-1.2-2.69-2.43-4.08-3.6a1.67,1.67,0,0,1-.63-1.45c0-2,0-4,0-6a1.73,1.73,0,0,0-.31-1.05c-1.55-1.88-3.14-3.73-4.71-5.59-.07-.08-.16-.14-.36-.34v13h-5.67v-1c0-5.92,0-11.83,0-17.75a2.57,2.57,0,0,0-.75-2c-.54-.56-1-1.2-1.49-1.8Z"/><path d="M227.87,239.22h-5c0,.34,0,.6,0,.86,0,4.49,0,9,0,13.46a1.36,1.36,0,0,0,.63,1.25c1.13.82,2.23,1.68,3.32,2.56a1.18,1.18,0,0,1,.47.75c0,2.29,0,4.57,0,7.06a7,7,0,0,1-1-.51c-2.82-2.18-5.63-4.38-8.46-6.54a1.3,1.3,0,0,1-.58-1.18q0-8.34,0-16.68v-1h-5.38v-5.69h16Z"/><path d="M159.58,262.06V246.49l-2-.1v-4.82h1.95v-8h13.21v5.65h-7.49v2.34h7.5v4.9h-7.51c0,.39,0,.71,0,1,0,2.86,0,5.72,0,8.57a2.14,2.14,0,0,1-.84,1.9c-1.33,1.1-2.6,2.28-3.89,3.42Z"/></g></g></svg>